# xmcd CD database file
#
# Track frame offsets:
#	150
#	11451
#	30936
#	50636
#	64905
#	75258
#	92278
#	108700
#	124354
#	139719
#	154404
#	165090
#
# Disc length: 2484 seconds
#
# Revision: 0
# Processed by: cddbd v1.5.1PL2 Copyright (c) Steve Scherf et al.
# Submitted via: CDex 1.51
#
DISCID=8b09b20c
DTITLE=Julian austin - what my heart already knows
DYEAR=1900
DGENRE=Country
TTITLE0=little ol' kisses
TTITLE1=hard time loving you
TTITLE2=two out of three ain't bad
TTITLE3=honky tonk lock and key
TTITLE4=sad ways of a fool
TTITLE5=what my heart all ready knows
TTITLE6=diamond
TTITLE7=sister ruby
TTITLE8=dancing with him
TTITLE9=highway song
TTITLE10=when you're gone
TTITLE11=loving you was never right
EXTD=
EXTT0=
EXTT1=
EXTT2=
EXTT3=
EXTT4=
EXTT5=
EXTT6=
EXTT7=
EXTT8=
EXTT9=
EXTT10=
EXTT11=
PLAYORDER=
